PathFileType	4	(X/Y/Z)	Walk3.trc
DataRate	CameraRate	NumFrames	NumMarkers	Units	OrigDataRate	OrigDataStartFrame	OrigNumFrames
200.000000	200.000000	8	59	mm	200.000000	538	578
Frame#	Times		CLAV		STRN		RASI		RACR1		RUA1		RElbow		RFA1		RWRU		LACR1		LUA1		LFA1		LCAR		RTH1		RTH3		RTH2		LTH3		LLFC		LTB1		LTB3		LTB4		LToe		LTH2		RFHD		LTH4		LFHD		LTB2		RBack		RTH4		LMT1		RCAR		RWRR		C7		RPSI		LMT5		LTH1		T10		LMMAL		RLFC		RTB1		LPSI		LLMAL		RBHD		LElbow		LBHD		RTB2		RTB4		RToe		RElbowM		LWRU		RTB3		LWRR		RMT1		RLMAL		RMMAL		LASI		RMT5		RCAL		LElbowM		LCAL
			X1	Y1	Z1	X2	Y2	Z2	X3	Y3	Z3	X4	Y4	Z4	X5	Y5	Z5	X6	Y6	Z6	X7	Y7	Z7	X8	Y8	Z8	X9	Y9	Z9	X10	Y10	Z10	X11	Y11	Z11	X12	Y12	Z12	X13	Y13	Z13	X14	Y14	Z14	X15	Y15	Z15	X16	Y16	Z16	X17	Y17	Z17	X18	Y18	Z18	X19	Y19	Z19	X20	Y20	Z20	X21	Y21	Z21	X22	Y22	Z22	X23	Y23	Z23	X24	Y24	Z24	X25	Y25	Z25	X26	Y26	Z26	X27	Y27	Z27	X28	Y28	Z28	X29	Y29	Z29	X30	Y30	Z30	X31	Y31	Z31	X32	Y32	Z32	X33	Y33	Z33	X34	Y34	Z34	X35	Y35	Z35	X36	Y36	Z36	X37	Y37	Z37	X38	Y38	Z38	X39	Y39	Z39	X40	Y40	Z40	X41	Y41	Z41	X42	Y42	Z42	X43	Y43	Z43	X44	Y44	Z44	X45	Y45	Z45	X46	Y46	Z46	X47	Y47	Z47	X48	Y48	Z48	X49	Y49	Z49	X50	Y50	Z50	X51	Y51	Z51	X52	Y52	Z52	X53	Y53	Z53	X54	Y54	Z54	X55	Y55	Z55	X56	Y56	Z56	X57	Y57	Z57	X58	Y58	Z58	X59	Y59	Z59

538	2.69	845.18	1351.9	-30.553	921.92	1129.4	-24.799	877.61	965.09	125.6	797.32	1366.1	144.77	761.03	1157.1	207.77	728.58	1053.6	231.2	786.03	911.04	244.1	754.03	803.06	261.18	778.24	1365.8	-196.9	766.61	1156.8	-243.56	815.66	919.28	-258.03	845.17	762.59	-259.34	823.47	762.13	173.8	891.53	588.19	140.03	920.63	706.1	139.68	795.32	558.69	-130.92	792.95	449.75	-116.3	809.16	349.24	-35.33	760.01	168.02	-31.703	786.47	256.59	-37.241	892.92	28.502	-72.228	856.86	655.92	-127.11	902.85	1590.5	16.522	783.64	645.01	-150.69	895.34	1590.5	-56.113	764.5	261.7	-105.68	677.37	1326.6	74.874	858.35	674.89	156.8	847.72	37.737	-41.607	800.17	761.9	260.44	808.49	806.14	209.95	720.27	1430.3	-22.895	662.22	986.2	59.654	805.04	21.47	-117.87	774.93	739.81	-172.03	686.62	1145.2	-16.933	719.63	73.571	4.1241	913.96	502.16	123.03	906.26	376.47	61.976	657.89	982.71	-54.712	700.3	62.338	-75.787	730.46	1560.5	53.92	753.55	1037.5	-256.58	723.68	1571.4	-74.804	831.41	318.76	127.51	851.23	301.74	61.143	852.01	45.371	121.99	716.31	1031.3	147.85	794.84	799.42	-273.39	796.55	227.07	60.097	838.25	804.29	-216.17	827.16	61.31	84.566	699.88	159.34	103.4	736.76	158.19	30.377	868.77	948.92	-149.28	769.15	62.96	143.45	652.74	145.13	48.405	724.92	1023.8	-192.87	651.65	30.65	-19.96
539	2.695	849.99	1351.8	-30.718	926.69	1129.4	-25.276	882.87	965.31	124.89	802.2	1365.8	144.67	765.23	1156.9	207.54	732.51	1053.5	230.82	789.09	910.7	244.01	756.35	802.92	261.18	782.94	1366	-196.96	772.49	1157.1	-244.15	824.04	920.16	-258.57	855.82	764.02	-259.58	829.02	762.55	173.89	898.03	589.05	139.71	926.47	707.12	139.46	798.31	558.23	-130.79	795.46	449.33	-116.12	811.02	348.72	-35.135	760.75	167.82	-31.553	787.76	256.22	-37.06	892.97	28.468	-72.319	860.36	655.16	-127.17	907.91	1590.2	16.58	787.1	644.51	-150.61	900.39	1590.2	-56.053	765.92	261.44	-105.54	682.22	1326.5	74.741	864.34	675.53	156.72	847.74	37.745	-41.609	802.19	761.41	260.55	810.91	805.56	210.03	725.09	1430.2	-22.918	667.09	986.23	59.512	805.03	21.468	-117.87	778.73	739.42	-171.96	691.44	1145	-17.185	719.82	73.553	4.2408	920.79	502.82	122.75	915.68	376.7	61.656	662.62	982.6	-54.801	700.47	62.481	-75.71	735.49	1560.4	53.98	760.4	1037.6	-257.47	728.7	1571.5	-74.747	842.14	317.25	126.97	862.55	300.6	60.699	869.84	44.732	122.02	720.4	1031.3	147.42	804.98	800.05	-273.84	809.77	224.65	59.542	848.15	805.62	-216.49	844.73	60.098	84.457	714.74	154.54	102.57	751.83	154.28	29.68	873.5	948.77	-149.64	786.39	60.255	143.05	668.13	138.9	47.52	731.62	1023.6	-193.92	651.7	30.849	-19.814
540	2.7	854.81	1351.7	-30.872	931.48	1129.3	-25.74	888.12	965.44	124.18	807.09	1365.5	144.58	769.45	1156.7	207.33	736.48	1053.4	230.46	792.2	910.32	243.94	758.75	802.74	261.19	787.63	1366.1	-197.02	778.34	1157.4	-244.72	832.4	921.03	-259.12	866.43	765.48	-259.83	834.55	762.91	174	904.42	589.82	139.4	932.24	708.05	139.21	801.35	557.74	-130.65	798.03	448.89	-115.94	812.94	348.18	-34.936	761.52	167.6	-31.394	789.09	255.82	-36.874	893.02	28.429	-72.419	863.88	654.37	-127.22	912.96	1589.9	16.654	790.58	644	-150.52	905.42	1590	-55.977	767.39	261.16	-105.4	687.08	1326.3	74.627	870.26	676.1	156.66	847.76	37.751	-41.608	804.27	760.89	260.66	813.39	804.94	210.11	729.92	1430.1	-22.922	671.96	986.22	59.384	805.02	21.466	-117.87	782.55	739	-171.9	696.27	1144.9	-17.421	720.01	73.522	4.3711	927.49	503.36	122.5	924.98	376.85	61.338	667.36	982.44	-54.877	700.64	62.628	-75.635	740.51	1560.2	54.051	767.22	1037.7	-258.34	733.72	1571.5	-74.676	852.9	315.64	126.44	873.84	299.41	60.261	887.76	44.171	122.11	724.55	1031.3	147.01	815.09	800.69	-274.28	823.05	222.2	58.998	858.03	806.97	-216.82	862.41	58.956	84.398	729.78	149.7	101.77	767.08	150.35	29.002	878.24	948.53	-149.94	803.78	57.593	142.68	683.77	132.61	46.655	738.36	1023.4	-194.93	651.76	31.057	-19.667
541	2.705	859.64	1351.5	-31.014	936.28	1129.2	-26.191	893.35	965.48	123.49	812	1365.2	144.5	773.69	1156.5	207.15	740.49	1053.2	230.14	795.36	909.9	243.9	761.22	802.51	261.21	792.32	1366.2	-197.05	784.17	1157.6	-245.28	840.72	921.89	-259.67	877	766.95	-260.08	840.04	763.2	174.11	910.71	590.51	139.1	937.94	708.88	138.93	804.44	557.22	-130.51	800.65	448.41	-115.76	814.9	347.62	-34.735	762.32	167.37	-31.227	790.45	255.41	-36.684	893.08	28.384	-72.528	867.43	653.56	-127.26	918	1589.5	16.744	794.08	643.47	-150.42	910.45	1589.7	-55.886	768.88	260.87	-105.25	691.95	1326.1	74.531	876.12	676.59	156.6	847.78	37.754	-41.603	806.42	760.33	260.76	815.92	804.3	210.2	734.75	1429.9	-22.908	676.84	986.17	59.27	805.02	21.463	-117.85	786.39	738.55	-171.85	701.1	1144.7	-17.642	720.22	73.479	4.5154	934.04	503.75	122.29	934.17	376.93	61.02	672.1	982.25	-54.939	700.81	62.779	-75.563	745.52	1560	54.135	774.02	1037.8	-259.19	738.74	1571.4	-74.591	863.67	313.93	125.94	885.08	298.17	59.83	905.78	43.704	122.24	728.74	1031.1	146.65	825.17	801.34	-274.69	836.39	219.72	58.466	867.89	808.33	-217.14	880.2	57.9	84.381	744.99	144.82	100.99	782.49	146.41	28.342	882.98	948.22	-150.2	821.29	54.995	142.35	699.64	126.29	45.806	745.13	1023.1	-195.89	651.82	31.272	-19.522
542	2.71	864.48	1351.3	-31.145	941.1	1129	-26.627	898.55	965.41	122.82	816.93	1364.8	144.44	777.95	1156.2	207	744.54	1053	229.85	798.57	909.43	243.89	763.76	802.23	261.24	797.01	1366.2	-197.08	789.97	1157.7	-245.82	849.01	922.73	-260.22	887.54	768.45	-260.32	845.51	763.44	174.24	916.89	591.11	138.8	943.57	709.61	138.63	807.58	556.69	-130.38	803.33	447.91	-115.58	816.9	347.03	-34.535	763.15	167.12	-31.058	791.84	254.98	-36.492	893.15	28.333	-72.645	870.99	652.72	-127.29	923.04	1589.1	16.85	797.61	642.92	-150.31	915.47	1589.4	-55.779	770.41	260.55	-105.1	696.83	1325.8	74.451	881.92	677.01	156.55	847.8	37.754	-41.591	808.64	759.74	260.86	818.52	803.62	210.3	739.59	1429.7	-22.875	681.73	986.07	59.173	805.01	21.46	-117.83	790.24	738.07	-171.81	705.94	1144.4	-17.85	720.45	73.429	4.6731	940.45	504.01	122.12	943.24	376.95	60.704	676.84	982.01	-54.985	700.98	62.935	-75.495	750.52	1559.8	54.23	780.81	1037.9	-260.02	743.75	1571.3	-74.491	874.46	312.14	125.46	896.29	296.9	59.405	923.88	43.347	122.41	732.97	1030.9	146.32	835.21	802.01	-275.08	849.79	217.22	57.944	877.72	809.7	-217.46	898.09	56.946	84.395	760.39	139.93	100.24	798.07	142.49	27.7	887.72	947.81	-150.42	838.94	52.481	142.05	715.75	119.96	44.971	751.93	1022.8	-196.8	651.88	31.498	-19.381
543	2.715	869.33	1351	-31.264	945.94	1128.8	-27.05	903.74	965.24	122.16	821.87	1364.3	144.39	782.24	1155.8	206.87	748.63	1052.7	229.6	801.84	908.92	243.9	766.38	801.92	261.29	801.7	1366.2	-197.09	795.74	1157.9	-246.34	857.26	923.56	-260.77	898.02	769.96	-260.57	850.95	763.61	174.38	922.96	591.61	138.51	949.12	710.24	138.3	810.76	556.13	-130.25	806.05	447.38	-115.4	818.94	346.42	-34.338	764	166.86	-30.889	793.26	254.53	-36.301	893.22	28.276	-72.769	874.57	651.87	-127.3	928.07	1588.6	16.972	801.16	642.35	-150.19	920.49	1589	-55.656	771.97	260.22	-104.95	701.72	1325.5	74.387	887.65	677.34	156.51	847.83	37.749	-41.572	810.94	759.1	260.97	821.18	802.91	210.4	744.44	1429.4	-22.823	686.63	985.93	59.094	805	21.458	-117.81	794.12	737.56	-171.79	710.78	1144.1	-18.044	720.69	73.377	4.8429	946.71	504.12	121.99	952.2	376.91	60.387	681.58	981.73	-55.016	701.16	63.095	-75.432	755.52	1559.5	54.339	787.57	1037.9	-260.81	748.76	1571.2	-74.378	885.26	310.28	124.99	907.46	295.59	58.987	942.05	43.117	122.59	737.25	1030.7	146.03	845.21	802.68	-275.46	863.24	214.73	57.433	887.53	811.08	-217.78	916.06	56.111	84.43	775.96	135.05	99.503	813.8	138.61	27.074	892.45	947.33	-150.6	856.72	50.07	141.77	732.1	113.67	44.147	758.75	1022.4	-197.66	651.95	31.736	-19.244
544	2.72	874.19	1350.7	-31.371	950.79	1128.5	-27.457	908.9	964.98	121.53	826.83	1363.8	144.34	786.56	1155.4	206.76	752.76	1052.3	229.37	805.17	908.38	243.93	769.09	801.56	261.35	806.4	1366.2	-197.08	801.49	1158	-246.85	865.48	924.38	-261.32	908.46	771.48	-260.81	856.36	763.71	174.53	928.92	592	138.24	954.6	710.74	137.95	813.99	555.54	-130.13	808.81	446.82	-115.22	821.02	345.79	-34.145	764.86	166.57	-30.726	794.71	254.07	-36.113	893.3	28.212	-72.9	878.18	651.01	-127.31	933.09	1588.1	17.111	804.73	641.78	-150.07	925.51	1588.6	-55.517	773.56	259.87	-104.8	706.63	1325.1	74.337	893.31	677.59	156.48	847.86	37.738	-41.546	813.32	758.42	261.07	823.9	802.17	210.52	749.29	1429.1	-22.753	691.54	985.75	59.034	805	21.454	-117.78	798.02	737.03	-171.77	715.63	1143.8	-18.222	720.94	73.327	5.0228	952.82	504.08	121.89	961.04	376.8	60.073	686.32	981.42	-55.029	701.33	63.261	-75.373	760.51	1559.2	54.462	794.31	1037.9	-261.59	753.77	1571	-74.251	896.06	308.35	124.55	918.59	294.27	58.577	960.3	43.032	122.78	741.57	1030.4	145.77	855.16	803.37	-275.81	876.75	212.26	56.932	897.3	812.47	-218.09	934.12	55.411	84.469	791.71	130.19	98.795	829.66	134.78	26.465	897.16	946.76	-150.74	874.63	47.783	141.5	748.66	107.42	43.334	765.6	1022	-198.48	652.02	31.987	-19.114
545	2.725	879.07	1350.3	-31.464	955.66	1128.1	-27.85	914.05	964.63	120.93	831.8	1363.3	144.32	790.91	1155	206.67	756.93	1052	229.18	808.55	907.79	243.98	771.88	801.16	261.44	811.1	1366.1	-197.06	807.21	1158	-247.34	873.66	925.17	-261.87	918.84	773.02	-261.06	861.74	763.73	174.68	934.75	592.29	137.97	960.01	711.14	137.58	817.27	554.93	-130.02	811.62	446.23	-115.05	823.13	345.14	-33.959	765.74	166.27	-30.572	796.18	253.58	-35.929	893.38	28.143	-73.034	881.81	650.12	-127.3	938.11	1587.6	17.268	808.32	641.19	-149.95	930.51	1588.1	-55.361	775.17	259.51	-104.66	711.55	1324.6	74.301	898.89	677.74	156.46	847.89	37.723	-41.511	815.78	757.71	261.19	826.69	801.4	210.64	754.16	1428.7	-22.665	696.47	985.52	58.995	805	21.451	-117.74	801.94	736.46	-171.75	720.49	1143.4	-18.385	721.19	73.287	5.2101	958.77	503.89	121.83	969.76	376.64	59.762	691.07	981.06	-55.024	701.52	63.432	-75.319	765.49	1558.8	54.599	801.04	1037.9	-262.33	758.77	1570.7	-74.11	906.88	306.37	124.13	929.68	292.94	58.176	978.61	43.109	122.94	745.94	1030	145.54	865.07	804.05	-276.13	890.3	209.81	56.443	907.04	813.86	-218.41	952.24	54.864	84.498	807.62	125.39	98.112	845.66	131.04	25.873	901.86	946.11	-150.85	892.67	45.637	141.24	765.45	101.24	42.533	772.46	1021.6	-199.26	652.09	32.252	-18.99
